<svg viewBox="0 0 64 64" xmlns="http://www.w3.org/2000/svg"><g data-name="25-Wallet and Payment"><path d="M46 10h2a2.938 2.938 0 0 1 3 3v4M59 44v15a4 4 0 0 1-4 4H5a4 4 0 0 1-4-4V28" fill="none" stroke="#00a651" stroke-linejoin="round" stroke-width="2px" class="stroke-000000"></path><path d="M59 36V21a4 4 0 0 0-4-4h-9M43 36h20v8H43zM48 36v8" fill="none" stroke="#00a651" stroke-linejoin="round" stroke-width="2px" class="stroke-000000"></path><rect height="24" rx="2" ry="2" width="42" x="1" y="1" fill="none" stroke="#00a651" stroke-linejoin="round" stroke-width="2px" class="stroke-000000"></rect><circle cx="22" cy="13" r="12" fill="none" stroke="#00a651" stroke-linejoin="round" stroke-width="2px" class="stroke-000000"></circle><path d="M18 15v2a2 2 0 0 0 2 2h4a2 2 0 0 0 2-2v-2a2 2 0 0 0-2-2h-4a2 2 0 0 1-2-2V9a2 2 0 0 1 2-2h4a2 2 0 0 1 2 2v2M22 7V4M22 22v-3M8 5H5v3M39 8V5h-3M36 21h3v-3M5 18v3h3M5 54v3a1.959 1.959 0 0 0 2 2h3M55 26v-3a1.959 1.959 0 0 0-2-2h-3M4 13h2M38 13h2M8 29h2s4 0 4 4v22M36 29h-2s-4 0-4 4v22M22 28v23M22 53v2M38 29h2M4 29h2" fill="none" stroke="#00a651" stroke-linejoin="round" stroke-width="2px" class="stroke-000000"></path></g></svg>